# xmcd CD database file
# Copyright (C) 1993-1998 Ti Kan
# 
# Track frame offsets:
#     182
#     20947
#     39407
#     58325
#     71360
#     86580
#     98695
#     116585
#     127092
#     146595
#     163490
#     178650
#     192962
#     206352
#     218920
#     236547
#     248630
#     262065
#     283375
#     295807
# 
# Disc length: 4106 seconds
# 
# Revision: 1
# Processed by: cddbd v1.4b41PL1 Copyright (c) Steve Scherf et al.
# Submitted via: DiscPlay 4.0.4
# 
DISCID=3e100814
DTITLE=Sonny Terry and Brownie McGhee - The Legendary Blues of Sonny Terry and B
DTITLE=rownie McGhee
DYEAR=1900
DGENRE=
TTITLE0=John Henry
TTITLE1=Midnight Special
TTITLE2=Muddy Water
TTITLE3=Take This Hammer Whup
TTITLE4=Sportin'  Life
TTITLE5=Cornbread And Peas
TTITLE6=Louise, Louise
TTITLE7=Hooray, Hooray, This Woman Is Killing Me
TTITLE8=Evil Hearted Me
TTITLE9=Sonny's Squall
TTITLE10=Red River Blues
TTITLE11=Spread The News Around
TTITLE12=Just About Crazy
TTITLE13=Wholesale Dealin' Papa
TTITLE14=Just A Closer Walk With Thee
TTITLE15=I Shall Not Be Moved
TTITLE16=Back To New Orleans
TTITLE17=Don't You Lie To Me
TTITLE18=That's Why I'm Walking
TTITLE19=Freight Train
EXTD=
EXTT0=
EXTT1=
EXTT2=
EXTT3=
EXTT4=
EXTT5=
EXTT6=
EXTT7=
EXTT8=
EXTT9=
EXTT10=
EXTT11=
EXTT12=
EXTT13=
EXTT14=
EXTT15=
EXTT16=
EXTT17=
EXTT18=
EXTT19=
PLAYORDER=
